<?xml version="1.0" encoding="UTF-8" standalone="no"?>
<!-- Created with Inkscape (http://www.inkscape.org/) -->

<svg
   width="4.7606282mm"
   height="4.6883836mm"
   viewBox="0 0 4.7606281 4.6883835"
   version="1.1"
   id="svg5"
   inkscape:version="1.1 (c4e8f9ed74, 2021-05-24)"
   sodipodi:docname="favicon.svg"
   xmlns:inkscape="http://www.inkscape.org/namespaces/inkscape"
   xmlns:sodipodi="http://sodipodi.sourceforge.net/DTD/sodipodi-0.dtd"
   xmlns="http://www.w3.org/2000/svg"
   xmlns:svg="http://www.w3.org/2000/svg">
  <sodipodi:namedview
     id="namedview7"
     pagecolor="#505050"
     bordercolor="#eeeeee"
     borderopacity="1"
     inkscape:pageshadow="0"
     inkscape:pageopacity="0"
     inkscape:pagecheckerboard="0"
     inkscape:document-units="mm"
     showgrid="false"
     inkscape:zoom="8.285333"
     inkscape:cx="31.50145"
     inkscape:cy="-7.6641458"
     inkscape:window-width="2560"
     inkscape:window-height="1016"
     inkscape:window-x="1920"
     inkscape:window-y="0"
     inkscape:window-maximized="1"
     inkscape:current-layer="layer1"
     fit-margin-top="0"
     fit-margin-left="0"
     fit-margin-right="0"
     fit-margin-bottom="0" />
  <defs
     id="defs2" />
  <g
     inkscape:label="Capa 1"
     inkscape:groupmode="layer"
     id="layer1"
     transform="translate(-43.685688,-75.789925)">
    <g
       id="g56809"
       transform="translate(0.00350885,0.23662671)"
       style="fill:#333333" />
    <path
       id="text1904"
       style="font-style:normal;font-variant:normal;font-weight:bold;font-stretch:normal;font-size:4.62479px;line-height:1.25;font-family:'Source Code Pro';-inkscape-font-specification:'Source Code Pro Bold';fill:#ffffff;fill-opacity:1;stroke:none;stroke-width:0.364156"
       d="m 14.980469,1.6933594 c -0.332181,0.2609991 -0.604815,0.4748243 -0.81836,0.6171875 0.08305,0.2491355 0.190173,0.450443 0.451172,0.8300781 C 14.945462,2.8440351 14.981403,2.8084535 15.384766,2.5 15.349175,2.4288184 15.325378,2.3827424 15.230469,2.2285156 15.159287,2.0861525 15.147643,2.0849282 15.052734,1.8476562 Z M 14.601562,4.125 c -0.201681,0 -0.902185,0.392424 -1.875,1.0449219 l -0.02344,0.3320312 c 0.723679,-0.3914987 0.758462,-0.4042969 0.865234,-0.4042969 0.09491,0 0.142579,0.072626 0.142579,0.203125 0,0.1660904 -0.03494,0.3315875 -0.212891,1.0078126 -0.557589,2.0642658 -0.558594,2.0645933 -0.558594,2.3730468 0,0.2847264 0.107202,0.4746094 0.285156,0.4746094 0.201682,0 0.52162,-0.1552314 1.150391,-0.5585938 0.225408,-0.1423631 0.452326,-0.2832732 0.677734,-0.4375 0.106773,-0.059318 0.189668,-0.1200798 0.332032,-0.203125 L 15.431641,7.625 15.230469,7.7324219 c -0.818588,0.4508167 -0.961153,0.5097656 -1.103516,0.5097656 -0.130499,0 -0.212891,-0.1303501 -0.212891,-0.3320313 0,-0.2016811 -8.73e-4,-0.2015833 0.390626,-1.7675781 C 14.743641,4.3393114 14.744141,4.3390494 14.744141,4.2441406 14.744141,4.172959 14.684608,4.125 14.601562,4.125 Z M 1.7617188,4.203125 v 11.396484 h 2.1328124 v -3.53125 c 0,-1.276005 -0.2096745,-4.05573 -0.3320312,-5.2792965 H 3.615234 L 4.4375,9.8300781 5.328125,12.574219 H 6.5878906 L 7.4609375,9.8300781 8.3339844,6.7890625 h 0.052734 C 8.2818416,8.012629 8.0546875,10.792354 8.0546875,12.068359 v 3.53125 H 10.222656 V 4.203125 H 7.53125 L 6.4121094,8.2402344 6.0273438,9.8125 H 5.9570312 L 5.5722656,8.2402344 4.4550781,4.203125 Z m 10.4160342,5.2834893 -1.9e-5,1.0771657 h 3.779297 l 1.9e-5,-1.0771657 z m 3.087872,1.5094797 c -0.866043,0 -1.980469,1.019592 -1.980469,1.814453 0,0.367771 0.189809,0.652339 0.640625,0.972656 0.59318,0.415226 0.675781,0.523723 0.675781,0.820313 0,0.427089 -0.545132,0.923828 -1.007812,0.923828 -0.260999,0 -0.463395,-0.141345 -0.582031,-0.402344 -0.08304,-0.177954 -0.107277,-0.356258 -0.119141,-0.771484 -0.130499,0.106772 -0.225983,0.165581 -0.273437,0.201172 -0.09491,0.05932 -0.199869,0.118271 -0.306641,0.189453 -0.01186,0 -0.119935,0.08326 -0.214844,0.142578 -0.01186,0.106772 -0.02344,0.202256 -0.02344,0.273437 0,0.521999 0.356908,0.865235 0.878906,0.865235 0.379635,0 0.876224,-0.14178 1.255859,-0.367188 0.711816,-0.403362 1.126954,-1.008383 1.126954,-1.601562 0,-0.438953 -0.06987,-0.533993 -0.746094,-0.949219 -0.403363,-0.260999 -0.570313,-0.486468 -0.570313,-0.794922 0,-0.403362 0.344685,-0.759766 0.748047,-0.759766 0.272863,0 0.48524,0.13071 0.734375,0.462891 0.403362,-0.391499 0.404367,-0.391779 0.558594,-0.617187 -0.237272,-0.284727 -0.462741,-0.402344 -0.794922,-0.402344 z"
       sodipodi:nodetypes="cccccccsccsscsscccccsscsscccsccccccccscccccccccccccccsscsscccccsscscssccss"
       transform="matrix(0.26458333,0,0,0.26458333,43.685689,75.789928)" />
    <rect
       style="fill:none;stroke:#ffffff;stroke-width:0.142029;stroke-opacity:1"
       id="rect1014"
       width="4.6185994"
       height="4.5463548"
       x="43.756702"
       y="75.860939" />
  </g>
</svg>
